/* XPM */
static char *Gemini_Generated_Image_rr4dgnrr4dgnrr4d_removebg_preview__1_1736431688[] = {
/* columns rows colors chars-per-pixel */
"50 50 171 2 ",
"   c #010101",
".  c #030201",
"X  c #040302",
"o  c #040401",
"O  c #060401",
"+  c #060402",
"@  c #070402",
"#  c #090501",
"$  c #090502",
"%  c #0B0602",
"&  c #110C01",
"*  c #180F03",
"=  c #1A1303",
"-  c #1A1402",
";  c #1F1902",
":  c #261703",
">  c #231C02",
",  c #2F1C05",
"<  c #251C0B",
"1  c #282002",
"2  c #2B2502",
"3  c #352604",
"4  c #302903",
"5  c #322D02",
"6  c #362F02",
"7  c #32250F",
"8  c #373303",
"9  c #3C3302",
"0  c #3A3603",
"q  c #3D3004",
"w  c #3E3902",
"e  c #3C3C05",
"r  c #413603",
"t  c #413A03",
"y  c #413F04",
"u  c #493D04",
"i  c #463513",
"p  c #473618",
"a  c #503D1A",
"s  c #444306",
"d  c #494403",
"f  c #4A4603",
"g  c #484906",
"h  c #4B4D04",
"j  c #504804",
"k  c #54450E",
"l  c #4E520A",
"z  c #4F5709",
"x  c #58500C",
"c  c #525C08",
"v  c #5D5A0C",
"b  c #594712",
"n  c #5E4814",
"m  c #51401A",
"M  c #665C1B",
"N  c #586504",
"B  c #55600F",
"V  c #5B620D",
"C  c #5E6411",
"Z  c #5D6712",
"A  c #6A7109",
"S  c #69661B",
"D  c #687416",
"F  c #6B7D14",
"G  c #52542A",
"H  c #614F20",
"J  c #654F2E",
"K  c #665320",
"L  c #665322",
"P  c #65692B",
"I  c #7C6E29",
"U  c #7B6A2F",
"Y  c #657120",
"T  c #6F772A",
"R  c #747E2E",
"E  c #6F6639",
"W  c #726F33",
"Q  c #677430",
"!  c #6F7947",
"~  c #7F7E50",
"^  c #867933",
"/  c #897A71",
"(  c #768426",
")  c #788532",
"_  c #7B8E32",
"`  c #7A8D3D",
"'  c #7D8441",
"]  c #7D8A5C",
"[  c #898D2A",
"{  c #82982F",
"}  c #80923F",
"|  c #878843",
" . c #828048",
".. c #968F4F",
"X. c #84934E",
"o. c #989644",
"O. c #858B53",
"+. c #8D9653",
"@. c #8F9D53",
"#. c #939E5C",
"$. c #98A35C",
"%. c #90AC5C",
"&. c #99AB59",
"*. c #A8A75E",
"=. c #848860",
"-. c #938B64",
";. c #8F9560",
":. c #8A9B64",
">. c #98926E",
",. c #8C8B72",
"<. c #989974",
"1. c #A8977E",
"2. c #97A376",
"3. c #9EA670",
"4. c #ABA66A",
"5. c #A2B568",
"6. c #A6AC7C",
"7. c #AEB676",
"8. c #A2BA76",
"9. c #A5B27A",
"0. c #AABB7B",
"q. c #B6B07C",
"w. c #B2BA7E",
"e. c #B7BF7F",
"r. c #9C9082",
"t. c #A39D82",
"y. c #B7AF86",
"u. c #ADBD83",
"i. c #B0B280",
"p. c #B5B681",
"a. c #B6A793",
"s. c #B5B793",
"d. c #BEBC99",
"f. c #BDB2A3",
"g. c #C0B594",
"h. c #C2BD97",
"j. c #C4B9B0",
"k. c #CCBFB5",
"l. c #AFC088",
"z. c #B0C483",
"x. c #B4CB87",
"c. c #B6C08F",
"v. c #B6C695",
"b. c #B9CF92",
"n. c #C4C693",
"m. c #C7CB91",
"M. c #C3D29E",
"N. c #C5CCA1",
"B. c #C1CEA4",
"V. c #CCD6A4",
"C. c #CED6AF",
"Z. c #D3D7AD",
"A. c #D4DAAB",
"S. c #DACCB4",
"D. c #DFCEBE",
"F. c #C9D4B3",
"G. c #D3D7B0",
"H. c #D0DBB7",
"J. c #D3D2BA",
"K. c #D8D2B8",
"L. c #D5DAB8",
"P. c #D5E1B7",
"I. c #D1D1C0",
"U. c #D9DBC3",
"Y. c #E2DBC4",
"T. c #DAE1C5",
"R. c #DFE5CB",
"E. c #DDE9C8",
"W. c #E2E6CF",
"Q. c #EAEAD7",
"!. c None",
/* pixels */
"!.!.!.!.!.!.!.!.!.!.!.!.!.!.!.!.!.!.!.!.!.!.!.!.!.!.!.!.!.!.!.!.!.!.!.!.!.!.!.!.!.!.!.!.!.!.!.!.!.!.",
"!.!.!.!.!.!.!.!.!.!.!.!.!.!.!.!.!.!.!.!.!.!.!.!.!.!.!.!.!.!.!.!.!.!.!.!.!.!.!.!.!.!.!.!.!.!.!.!.!.!.",
"!.!.!.!.!.!.!.!.!.!.!.!.!.!.!.!.!.!.!.!.!.!.!.!.!.!.!.!.!.!.!.!.!.!.!.!.!.!.!.!.!.!.!.!.!.!.!.!.!.!.",
"!.!.!.!.!.!.!.!.!.!.!.!.!.!.!.!.!.!.!.!.!.!.!.!.!.!.!.!.!.!.!.!.!.!.!.!.!.!.!.!.!.!.!.!.!.!.!.!.!.!.",
"!.!.!.!.!.!.!.!.!.!.!.!.!.!.!.!.!.!.!.!.!.!.!.!.!.!.!.!.!.!.!.!.!.!.!.!.!.!.!.!.!.!.!.!.!.!.!.!.!.!.",
"!.!.!.!.!.!.!.!.!.!.!.!.!.!.!.!.!.!.!.!.!.!.!.!.!.!.!.!.!.!.!.!.!.!.!.!.!.!.!.!.!.!.!.!.!.!.!.!.!.!.",
"!.!.!.!.!.!.!.!.!.!.!.!.!.!.!.!.!.!.!.!.!.!.!.!.!.!.!.!.!.!.!.!.!.!.!.!.!.!.!.!.!.!.!.!.!.!.!.!.!.!.",
"!.!.!.!.!.!.!.!.!.!.!.!.!.!.!.!.!.!.!.!.!.!.!.!.!.!.!.!.!.!.!.!.!.!.!.!.!.!.!.!.!.!.!.!.!.!.!.!.!.!.",
"!.!.!.!.!.!.!.!.!.!.!.!.!.!.!.!.!.!.!.!.!.!.!.!.!.!.!.!.!.!.!.!.!.!.!.!.!.!.!.!.!.!.!.!.!.!.!.!.!.!.",
"!.!.!.!.!.!.!.!.!.!.!.!.!.!.!.!.!.!.!.!.!.!.!.!.!.!.!.!.!.!.!.!.!.!.!.!.!.!.!.!.!.!.!.!.!.!.!.!.!.!.",
"!.!.!.!.!.!.!.!.!.!.!.!.!.!.!.!.!.!.!.!.!.!.!.!.!.!.!.!.!.!.!.!.!.!.!.!.!.!.!.!.!.!.!.!.!.!.!.!.!.!.",
"!.!.!.!.!.!.!.!.!.!.!.!.!.!.!.!.!.!.!.!.!.!.!.!.!.!.!.!.!.!.!.!.!.!.!.!.!.!.!.!.!.!.!.!.!.!.!.!.!.!.",
"!.!.!.!.!.!.!.!.!.!.!.!.!.!.!.!.!.!.!.!.!.!.!.!.!.!.!.!.!.!.!.!.!.!.!.!.!.!.!.!.!.!.!.!.!.!.!.!.!.!.",
"!.!.!.!.!.!.!.!.!.!.!.!.!.!.!.!.!.!.!.!.!.!.!.!.!.!.!.!.!.!.!.!.!.!.!.!.!.!.!.!.!.!.!.!.!.!.!.!.!.!.",
"!.!.!.!.!.!.!.!.!.!.!.!.!.!.!.!.!.!.!.!.!.!.!.!.!.!.!.!.!.!.!.!.!.!.!.!.!.!.!.!.!.!.!.!.!.!.!.!.!.!.",
"!.!.!.!.!.!.!.!.!.!.!.!.!.!.!.!.!.!.!.!.!.!.!.!.!.!.!.!.!.!.!.!.!.!.!.!.!.!.!.!.!.!.!.!.!.!.!.!.!.!.",
"!.!.!.!.!.!.!.!.!.!.!.!.!.!.!.!.!.!.!.!.!.!.!.!.!.!.!.!.!.!.!.!.!.!.!.!.!.!.!.!.!.!.!.!.!.!.!.!.!.!.",
"!.!.!.!.!.!.!.!.!.!.!.!.!.!.!.!.!.!.!.!.!.!.!.!.!.!.!.!.!.!.!.!.!.!.!.!.!.!.!.!.!.!.!.!.!.!.!.!.!.!.",
"!.!.!.!.!.!.!.!.!.!.!.!.!.!.!.!.!.!.!.!.!.!.!.!.!.!.!.!.!.!.!.!.!.!.!.!.!.!.!.!.!.!.!.!.!.!.!.!.!.!.",
"!.!.!.!.!.!.!.!.!.!.!.!.!.!.!.!.!.!.!.!.!.!.!.!.!.!.!.!.!.!.!.!.!.!.!.!.!.!.!.!.!.!.!.!.!.!.!.!.!.!.",
"!.!.!.!.!.!.!.!.!.!.!.!.!.!.!.!.!.!.!.!.!.!.!.!.!.!.!.!.!.!.!.!.!.!.!.!.!.!.!.!.!.!.!.!.!.!.!.!.!.!.",
"!.!.!.!.!.!.!.!.!.!.!.!.!.!.!.!.!.!.!.!.!.!.!.!.!.!.!.!.!.!.!.!.!.!.!.!.!.!.!.!.!.!.!.!.!.!.!.!.!.!.",
"!.!.!.!.!.!.!.!.!.!.!.!.!.!.!.!.!.!.!.!.!.!.!.!.!.!.!.!.!.!.!.J.I.Q.W.I.L.!.!.!.!.!.!.!.!.!.!.!.!.!.",
"!.!.!.!.!.!.!.!.!.!.!.!.!.!.!.!.!.!.!.!.!.!.!.!.!.!.!.!.!.Z.K.j.S.T.E.T.P.V.!.!.!.!.!.!.!.!.!.!.!.!.",
"!.!.!.!.!.!.!.!.!.!.!.!.!.!.!.!.!.!.!.!.!.!.!.!.!.!.!.!.Z.P.H.H.B.s.z.5.5.5.w.h.!.!.!.!.!.!.!.!.!.!.",
"!.!.!.!.!.!.!.!.!.!.!.!.!.!.!.!.!.!.!.!.!.!.!.!.!.!.!.!.7.u.v.8.%.) D Z V | i.m.!.!.!.!.!.!.!.!.!.!.",
"!.!.!.!.!.!.!.!.!.!.!.!.!.!.!.!.!.!.!.!.!.!.!.!.!.!.h.y.+.#.R Y z P O.-.>.N.P.M.e.!.!.!.!.!.!.!.!.!.",
"!.!.!.!.!.!.!.!.!.!.!.L.W.R.R.U.!.!.!.!.!.!.g.S.D.Y.Y.d.s.:.l e ! u.B.t./ >.5.&.$.4.!.!.!.!.!.!.!.!.",
"!.!.!.!.!.!.!.!.!.!.A.P.H.B.i.6.c.p.g.a.f.1.i.G.G.H.P.w.Q Q G G X.` _ ) E E ) ( [ ..!.!.!.!.!.!.!.!.",
"!.!.!.!.!.!.!.!.!.m.M.c.v.F.H.F.M.z.6.r.r./ d.C.E.P.H.N.3.=.<.2.] Q c z B C V A A ^ !.!.!.!.!.!.!.!.",
"!.!.!.!.!.!.!.!.q.i.$.9.v.0.8.&.@.9.3.r./ ,.u.c.0.&.l.b.0.v.M.M.B.2.P s e s g l v n !.!.!.!.!.!.!.!.",
"!.!.!.!.!.!.!.4.-.;.3.<.~ } ( R ;.#.X.<.s.6.O.@.R T  .( _ v.$.5.b.x.5.' s 8 0 f j n !.!.!.!.!.!.!.!.",
"!.!.!.!.!.!.!.*.| +.#.E J P T W a M ` 6.3.' W D V T v z X.&.) ` { { _ { R y 0 y f b !.!.!.!.!.!.!.!.",
"!.!.!.!.!.!.!.o.R | T S v V C k 3 x Y +.R z s l z C h c ` F Y S N N N N D C 9 t j K !.!.!.!.!.!.!.!.",
"!.!.!.!.!.!.!.^ W S v x h f g f f l C Y Y g 4 0 s s s Z c z c g g g h y h v u r k H !.!.!.!.!.!.!.!.",
"!.!.!.!.!.!.!.I M x j u t t w y s g h l g s 8 > 8 w e h y s s t s s w > q j x u b !.!.!.!.!.!.!.!.!.",
"!.!.!.!.!.!.!.U M x f u t w w w w 9 w e 0 0 g e > 5 y s w y t 9 r t 3 * 3 u k a H !.!.!.!.!.!.!.!.!.",
"!.!.!.!.!.!.!.!.K k r r 9 9 q 9 3 : : 6 4 5 g f 2 2 0 0 0 w w w 9 9 3 , 3 r a i !.!.!.!.!.!.!.!.!.!.",
"!.!.!.!.!.!.!.!.K k q q 3 6 5 6 4 : - > > 4 0 0 5 > 1 6 6 5 8 9 6 2 4 2 2 q p !.!.!.!.!.!.!.!.!.!.!.",
"!.!.!.!.!.!.!.!.!.a 3 3 2 1 1 2 1 > - * & > 2 4 2 = = = > 2 4 2 > > > > > i !.!.!.!.!.!.!.!.!.!.!.!.",
"!.!.!.!.!.!.!.!.!.!.7 1 > > ; ; = = * % o & - - = & % % % & = = - * - = !.!.!.!.!.!.!.!.!.!.!.!.!.!.",
"!.!.!.!.!.!.!.!.!.!.!.< = = & @ % % o o !.!.. % % o !.o o % o % % o % !.!.!.!.!.!.!.!.!.!.!.!.!.!.!.",
"!.!.!.!.!.!.!.!.!.!.!.!.!.!.% . o !.!.!.!.!.!.!.!.!.!.!.!.!.o . !.!.!.!.!.!.!.!.!.!.!.!.!.!.!.!.!.!.",
"!.!.!.!.!.!.!.!.!.!.!.!.!.!.!.!.!.!.!.!.!.!.!.!.!.!.!.!.!.!.!.!.!.!.!.!.!.!.!.!.!.!.!.!.!.!.!.!.!.!.",
"!.!.!.!.!.!.!.!.!.!.!.!.!.!.!.!.!.!.!.!.!.!.!.!.!.!.!.!.!.!.!.!.!.!.!.!.!.!.!.!.!.!.!.!.!.!.!.!.!.!.",
"!.!.!.!.!.!.!.!.!.!.!.!.!.!.!.!.!.!.!.!.!.!.!.!.!.!.!.!.!.!.!.!.!.!.!.!.!.!.!.!.!.!.!.!.!.!.!.!.!.!.",
"!.!.!.!.!.!.!.!.!.!.!.!.!.!.!.!.!.!.!.!.!.!.!.!.!.!.!.!.!.!.!.!.!.!.!.!.!.!.!.!.!.!.!.!.!.!.!.!.!.!.",
"!.!.!.!.!.!.!.!.!.!.!.!.!.!.!.!.!.!.!.!.!.!.!.!.!.!.!.!.!.!.!.!.!.!.!.!.!.!.!.!.!.!.!.!.!.!.!.!.!.!.",
"!.!.!.!.!.!.!.!.!.!.!.!.!.!.!.!.!.!.!.!.!.!.!.!.!.!.!.!.!.!.!.!.!.!.!.!.!.!.!.!.!.!.!.!.!.!.!.!.!.!.",
"!.!.!.!.!.!.!.!.!.!.!.!.!.!.!.!.!.!.!.!.!.!.!.!.!.!.!.!.!.!.!.!.!.!.!.!.!.!.!.!.!.!.!.!.!.!.!.!.!.!."
};
