/* XPM */
static char *_472c2c3277d4ef9ebdf39facc20d6d7PIcncG6WBtjA7WAw[] = {
/* columns rows colors chars-per-pixel */
"50 50 222 2 ",
"   c #000000",
".  c #050503",
"X  c #060906",
"o  c #0B0A05",
"O  c #0D0D09",
"+  c #090B0A",
"@  c #130C05",
"#  c #120F09",
"$  c #1C0A04",
"%  c #08100E",
"&  c #15120B",
"*  c #1C140B",
"=  c #171106",
"-  c #0D1411",
";  c #0C1A1A",
":  c #151712",
">  c #1E1B11",
",  c #101B1C",
"<  c #141916",
"1  c #220C07",
"2  c #2C0F08",
"3  c #24150B",
"4  c #2C130B",
"5  c #241A0E",
"6  c #2A1A0E",
"7  c #39160C",
"8  c #231C12",
"9  c #2B1D13",
"0  c #261F19",
"q  c #331D12",
"w  c #3A1D13",
"e  c #17211F",
"r  c #1E211E",
"t  c #2B2215",
"y  c #26241C",
"u  c #2D231A",
"i  c #29261A",
"p  c #342215",
"a  c #3A2316",
"s  c #332519",
"d  c #3B251A",
"f  c #342A1B",
"g  c #3C2C1C",
"h  c #382916",
"j  c #0F1D20",
"k  c #0E2224",
"l  c #172526",
"z  c #173338",
"x  c #132A33",
"c  c #242522",
"v  c #2A2521",
"b  c #282B26",
"n  c #362B22",
"m  c #3D3223",
"M  c #3A352A",
"N  c #243436",
"B  c #333733",
"V  c #42160D",
"C  c #491F16",
"Z  c #551F16",
"A  c #432215",
"S  c #42251A",
"D  c #4C251A",
"F  c #432C1C",
"G  c #4D2B1D",
"H  c #542B1E",
"J  c #5C281C",
"K  c #42311D",
"L  c #4D301F",
"P  c #672D1E",
"I  c #492C20",
"U  c #5D2E22",
"Y  c #542E21",
"T  c #423322",
"R  c #4A3323",
"E  c #473926",
"W  c #4B3926",
"Q  c #43392D",
"!  c #4E3C2C",
"~  c #4A352A",
"^  c #543323",
"/  c #543B25",
"(  c #5B3729",
")  c #543B2B",
"_  c #5D3D2C",
"`  c #5A3524",
"'  c #453A33",
"]  c #4B3D33",
"[  c #4F3E39",
"{  c #503F32",
"}  c #6E2C20",
"|  c #633424",
" . c #643D2D",
".. c #6B3B2B",
"X. c #67372C",
"o. c #74392B",
"O. c #53412D",
"+. c #58442F",
"@. c #44413B",
"#. c #4E4739",
"$. c #5D4C34",
"%. c #574538",
"&. c #67442D",
"*. c #72402D",
"=. c #7A442E",
"-. c #654B36",
";. c #6E4B35",
":. c #6D4C3B",
">. c #654837",
",. c #724432",
"<. c #7B4534",
"1. c #734A35",
"2. c #744E3A",
"3. c #7D4B35",
"4. c #6B543A",
"5. c #67563D",
"6. c #73543C",
"7. c #7B553D",
"8. c #745D3E",
"9. c #243E42",
"0. c #304C54",
"q. c #37555A",
"w. c #5D5145",
"e. c #575149",
"r. c #4C5150",
"t. c #575A55",
"y. c #6E5C42",
"u. c #775942",
"i. c #5C625D",
"p. c #776148",
"a. c #6F6052",
"s. c #476E71",
"d. c #5D6C6B",
"f. c #696861",
"g. c #62706D",
"h. c #70716A",
"j. c #6C7B76",
"k. c #874936",
"l. c #82553E",
"z. c #895239",
"x. c #925138",
"c. c #8A5340",
"v. c #875C44",
"b. c #8B5B44",
"n. c #845745",
"m. c #975F46",
"M. c #995B46",
"N. c #A35844",
"B. c #836549",
"V. c #8E634B",
"C. c #92654B",
"Z. c #956348",
"A. c #866952",
"S. c #956E53",
"D. c #9C6A51",
"F. c #9C6650",
"G. c #9C7257",
"H. c #967A59",
"J. c #8E7956",
"K. c #A6654D",
"L. c #A26D51",
"P. c #AA7155",
"I. c #AD765A",
"U. c #A27B5D",
"Y. c #A57759",
"T. c #B6795D",
"R. c #B66B50",
"E. c #817760",
"W. c #9A7960",
"Q. c #A97E61",
"!. c #B07C62",
"~. c #91836B",
"^. c #AD8263",
"/. c #AC8568",
"(. c #B48365",
"). c #B38A6A",
"_. c #BB8D6D",
"`. c #B99476",
"'. c #A59278",
"]. c #D7886C",
"[. c #C0906F",
"{. c #CB9E7C",
"}. c #C29A7A",
"|. c #D09F7B",
" X c #C48766",
".X c #78B7BD",
"XX c #75A9AF",
"oX c #8A8C84",
"OX c #A19C8D",
"+X c #9FA196",
"@X c #BCA48B",
"#X c #8FB4B6",
"$X c #ABB2A6",
"%X c #CDA583",
"&X c #D4A986",
"*X c #D5AB89",
"=X c #D3A483",
"-X c #D5B18D",
";X c #DCB995",
":X c #DDBB9A",
">X c #D7B491",
",X c #C4AD93",
"<X c #E7AE8F",
"1X c #E1BE9A",
"2X c #E3B594",
"3X c #E5C19E",
"4X c #DECCAD",
"5X c #CDC9B9",
"6X c #E2C4A2",
"7X c #E8CCA7",
"8X c #F4C1A1",
"9X c #EDDDBE",
"0X c #E9D3B4",
"qX c #F2D9B6",
"wX c #F2E0BD",
"eX c #8ED0D9",
"rX c #95CBCF",
"tX c #B2CDCA",
"yX c #A8DEE3",
"uX c #F2E2C3",
"iX c #F1E7CA",
"pX c #EFE9CA",
/* pixels */
"                                                                                                    ",
"                                                                                                    ",
"                                                                                                    ",
"                                                                                                    ",
"                                                tX5X                                                ",
"                                            tX$X@X-X6X0X9X                                          ",
"                                        yXrX+X`.`.-X0XuXuX9XpX                                      ",
"                                      yX#XoX'.`.%X;X7X9XuXqXwXiX                                    ",
"                                    eXXXh.a.A.^.[.{.*X;X:X1X3X6X                                    ",
"                                    rXd.%.%.:.D.T._.{.%X=X&X*X>X;X                                  ",
"                                    .Xt.] ! +.C._.{.*X:X:X1X6X7X6X    :X/.D.                        ",
"                    } o.c.F.!.*X  .XXXt.] ! u.`.*X;X1X1X;X1X;X7XqXqX6Xv.P                           ",
"                      Z V 7 V ..(.,XoXe.{ w.p.C.Z.n.v.L.P.;X[.m.Z.(.Y.P                             ",
"                      ..U V 4 4 7 c.D.%.%.e.F w w s 1 4 <.2X4X) S D 3.k.                            ",
"                        o.U A D $ 4 ^ ~ w.%.G G ..&.^ ^ <.T.qX@Xz.D.L.                              ",
"                          <.H H 2 $ w n ] 2.L.b.<.z.z.M.c.K.<XqX(.|.&X                              ",
"                            <.H C 4 w 9 v F k.P.I.L...o.<.k.].8X=X XT.                              ",
"                              ..U H a 8 y 9 7 J <.k.Y 1 1 C N.].R.x.                                ",
"                                | | ^ u i u 3 4 A *.6.R 3 1 J N.L.=.                                ",
"                                   .[ 9.N u 9 w D &.;.) q p ;.U.I.                                  ",
"                                  s.N % < i u p S S a A D X.n.c.l.                                  ",
"                                q.N y & . # 8 9 q p d S G ( ..l.                                    ",
"                                i.O.n y o . @ * 3 9 p R u.G.U.E.                                    ",
"                              g.:.u.) u & . . @ @ * 9 F ^ ^ B.'.                                    ",
"                            j.@.L R F 9 8 # . . @ @ o # 8 T -.                                      ",
"                          f.>.d a 6 3 6 9 > O . . . o & i O.F                                       ",
"                        ~.u.;.1./ * o 3 a 9 > O X o & > m +.;.                                      ",
"                      OX/.7.1._ c & * 6 q p t 8 & & > t ) R 2.                                      ",
"                    f.W.).^ A b z & 9 a a p 6 5 8 > 8 T ;.! / }.                                    ",
"                    r.u.).)   z ; & t g R R F 9 * 8 t W -.$.F ).                                    ",
"                    @.>.G.7.  l - O & 8 u u s s m g E 4.$.O.) S.%X                                  ",
"                    B _ S.v.  , < > & * 8 9 g ! 6.6.4.B.u.) W 7._.                                  ",
"                      ) S.G.  - y m ! f * * 9 p s T E T g W W &._.                                  ",
"                      ~ S.^.  e y f 5.y.E * & * * t u s p 4.y./ ^.                                  ",
"                      ) v.).  e y M $.p.p.W * * * & & 5 F 8.H.! G.                                  ",
"                      R n._.  , y Q 5.A.A.4.g & * * 8 h K 4.H.y.Q.=X                                ",
"                      ' 2.^.}.r < n O.U.-XB.O.p = 5 t h K $.J.~.`.{.                                ",
"                      ' ;.V.Q.y.+ 0 R C.*X).m g h 6 F p f / U.^.V.(.                                ",
"                      ' ;.G.3.b.  , n ,.I.D.9 > / K d t * G Z.P.` C._.                              ",
"                      ! ( D.,.,.  0.v w | Y o . K / g & o 3 w ^ I 1.Z.                              ",
"                      9 q l.  *.:.b 9 3 4 * . . & E s o @ = 3 c c 1.I.                              ",
"                      u a v.  | n - # @ &           + o o o : v ~ ..                                ",
"                      9 3 H     l % o & &         k X o * >   9 G Y                                 ",
"                        @ 4 |   x l v Q Q         ; X & i M #.#.                                    ",
"                                N Q >.v.-.B.      j O * : i 4.S.A.                                  ",
"                                %.2.6.u._ :.w.    - X @ . # S 1.>.:.>.                              ",
"                                s d d S 9 q ^             . o 3 w A                                 ",
"                                                                                                    ",
"                                                                                                    ",
"                                                                                                    "
};
