/* XPM */
static char *f2eda5868619400afd3630c9d599f134kVVIPDVzHDyPIEvJ[] = {
/* columns rows colors chars-per-pixel */
"50 50 227 2",
"   c #37B7A4",
".  c #020102",
"X  c #0B0304",
"o  c #02020D",
"O  c #0B050D",
"+  c #010A0F",
"@  c #08090E",
"#  c #120102",
"$  c #15060C",
"%  c #1B0909",
"&  c #0F100B",
"*  c #020313",
"=  c #0B0413",
"-  c #030A14",
";  c #0C0A13",
":  c #030619",
">  c #0B061B",
",  c #030B1A",
"<  c #0C0C1C",
"1  c #130D14",
"2  c #120E1C",
"3  c #1B0D16",
"4  c #0E1213",
"5  c #01121C",
"6  c #0D131C",
"7  c #091519",
"8  c #141213",
"9  c #1B1A14",
"0  c #14141C",
"q  c #1A131A",
"w  c #181718",
"e  c #10180B",
"r  c #21120D",
"t  c #250E14",
"y  c #21161B",
"u  c #281A19",
"i  c #381B19",
"p  c #33100C",
"a  c #3A291D",
"s  c #0E0F24",
"d  c #0D1622",
"f  c #0F1A25",
"g  c #061B29",
"h  c #151425",
"j  c #161C25",
"k  c #1B1B26",
"l  c #1C162C",
"z  c #171C2B",
"x  c #1A1728",
"c  c #251B24",
"v  c #211D2C",   
"b  c #2E1B23",
"n  c #3E1B21",
"m  c #211E32",
"M  c #1C232D",
"N  c #182229",
"B  c #1C2333",
"V  c #162C39",
"C  c #1A333E",
"Z  c #22232D",
"A  c #2D2A2D",
"S  c #2C2525",
"D  c #332224",
"F  c #392B2D",
"G  c #352728",
"H  c #39362E",
"J  c #242433",
"K  c #232935",
"L  c #2D2B32",
"P  c #282A3D",
"I  c #332631",
"U  c #332B33",
"Y  c #3C2B33",
"T  c #31283B",
"R  c #2D333C",
"E  c #24353C",
"W  c #3D3434",
"Q  c #34333E",
"!  c #3D393C",
"~  c #343439",
"^  c #481F19",
"/  c #4F2018",
"(  c #48351F",
")  c #45292D",
"_  c #593A2D",
"`  c #422F33",
"'  c #413433",
"]  c #4B3D3B",
"[  c #47353C",
"{  c #543837",
"}  c #532F24",
"|  c #643C38",
" . c #57422F",
".. c #4B443D",
"X. c #584739",
"o. c #202D40",
"O. c #2A3342",
"+. c #3C3B41",
"@. c #373C4B",
"#. c #353544",
"$. c #342C41",
"%. c #433D45",
"&. c #473B43",
"*. c #523F41",
"=. c #2B404D",
"-. c #3D4448",
";. c #374B56",
":. c #44444C",
">. c #4D494B",
",. c #4B4748",
"<. c #524A44",
"1. c #554C4E",
"2. c #594547",
"3. c #5B544C",
"4. c #505149",
"5. c #4B4D52",
"6. c #404153",
"7. c #544957",
"8. c #4F5156",
"9. c #455151",
"0. c #575A59",
"q. c #58595A",
"w. c #6A4F4A",
"e. c #644644",
"r. c #695648",
"t. c #75594E",
"y. c #634F58",
"u. c #695C5E",
"i. c #675855",
"p. c #7B5F58",
"a. c #765F51",
"s. c #784C4D",
"d. c #696359",
"f. c #776252",
"g. c #7B645C",
"h. c #4A4F62",
"j. c #485262",
"k. c #525665",
"l. c #555664",
"z. c #635B66",
"x. c #745A62",
"c. c #625D73",
"v. c #47636B",
"b. c #5C606B",
"n. c #5E6170",
"m. c #59717D",
"M. c #646164",
"N. c #6C626C",
"B. c #696869",
"V. c #736C6A",
"C. c #7B6A69",
"Z. c #7B6968",
"A. c #7B7369",
"S. c #686A73",
"D. c #776B72",
"F. c #68727E",
"G. c #7B7779",
"H. c #84565F",
"J. c #886757",
"K. c #96665D",
"L. c #80715A",
"P. c #826866",
"I. c #86766B",
"U. c #867A79",
"Y. c #977C76",
"T. c #A5756D",
"R. c #998878",
"E. c #AB8677",
"W. c #AD8C77",
"Q. c #C68B6B",
"!. c #7D7C84",
"~. c #797386",
"^. c #857D88",
"/. c #927E87",
"(. c #898787",
"). c #9A8986",
"_. c #99938D",
"`. c #878593",
"'. c #979593",
"]. c #988D9B",
"[. c #A38787",
"{. c #A8938B",
"}. c #A99C95",
"|. c #B79B93",
" X c #AEA095",
".X c #AAA39D",
"XX c #B9A49F",
"oX c #B8A999",
"OX c #B8A28B",
"+X c #AAA4A1",
"@X c #B8B4AA",
"#X c #BCAFB6",
"$X c #B7BAB9",
"%X c #B9ABA2",
"&X c #C29689",
"*X c #C5A799",
"=X c #D6AA9F",
"-X c #D3BF9C",
";X c #C6B19C",
":X c #CDAFA4",
">X c #C4B3A2",
",X c #CAB9A7",
"<X c #D6BBAA",
"1X c #C6BAB6",
"2X c #D3C2AC",
"3X c #DDC4A6",
"4X c #D2C7B7",
"5X c #EEC6BE",
"6X c #E8D8B5",
"7X c #F7DEBF",
"8X c #E5D2AC",
"9X c #F1E2BB",
"0X c #D3CBC9",
"qX c #DED5D0",
"wX c #DACFCE",
"eX c #F9CFC3",
"rX c #EED1C3",
"tX c #E9D9C5",
"yX c #F6DAC9",
"uX c #FFDFD6",
"iX c #EDCCC5",
"pX c #F9E5CA",
"aX c #FFEEDD",
"sX c #F9E4D4",
"dX c #FFF1D5",
"fX c #FFF4DC",
"gX c #FFF7E2",
/* pixels */
"                                                                                                    ",
"                                                                                                    ",
"                                                                                                    ",
"                                                                                                    ",
"                                                                                                    ",
"                                                                                                    ",
"                                                                                                    ",
"                                                                                                    ",
"                                                                                                    ",
"                                                                                                    ",
"                                        # % # t                                                     ",
"                                          p.p.w.) $ X                                               ",
"                                  p Y.rXfXaXaXrX<X).,.; +                                           ",
"                                % W.fXfXdXfXpX3X<X}._.0.- -                                         ",
"                              . X.7X-X9X8X6X8X3XOXI.V.B.9.f 6                                       ",
"                          .   . oX6X6X6X6XpX6XW.L.A.d.,.0.j 0 6 -                                   ",
"                              r.2X;X,XtX>XR.wX1Xd.3...<.M.^.q.M.-.*                                 ",
"                            ( r.X.a.R._ i e.w.}.i.<.i.1X/.&.W >.Q M                                 ",
"                            a  .J.uX=X| } J.t.{ g.{ Y.P.% Y 7.l.-.N -                               ",
"                              R.Y.yXT.K.T.K.E.iX[.) e.n t u.T @.F.;.5                               ",
"                              ,XP.} / / =X&X|.{.D ) { i i.I z o.=.v.C 5                             ",
"                                tXf._ 5XeX<Xg.r &.[ y.).' 1 z g C ;.v.g                             ",
"                                4XR.I.*X:X{.U.5.5.Q U G u (.`.N V V m.=.,                           ",
"                                @XI.t.w.f.Z.l.5.@.6 O y ' (.$XE 5 C ;.j.:                           ",
"                                  H %XR.2.u.~ Z < 0 S F ] 1.0.R * B P j.V :                         ",
"                                  L }._.*.b y O c F 3.Z.` &.'.,.< h P h.O.,                         ",
"                                  - . 8 G [ 2.D a g.|.[.b c 0X(.< = m 6.h.d                         ",
"                                    ; A [ D i.I.a.f.w.{ Y $ 1.G.%.< > J k.B ,                       ",
"                                    - 5.[ ..sXyXpX*XY.C.1.q X '.S.< * B k.O.d                       ",
"                                  - 6 !.A @XgXgXdXsX XA.>.8 <.$XQ - - K S.#.,                       ",
"                                  & :.`.8 1X2X<XpX4X).d...9  XA.+ 5 - d F.R o                       ",
"                                  X ^.q.X <.R.R.oXU.u.W ..X.XXG 4 6 - - F.R *                       ",
"                                . N `.3 u ] H 4.8.:.y I.}.>XC.X q ; o h ~.P *                       ",
"                                o 8.wXX C.U.& 4 d o >.0X X{.Y q O o Q `.c.m ,                       ",
"                                4 V.U.S }.V.S 0 - o N.U._.B.+.- + M b.n.k.P <                       ",
"                                0 u.W W (.B.8 o 2 o +.:.! -.M , + -.M K ;.f                         ",
"                                ; ,.A 9 A U 0 ; o 2 1 Z J < d , * M h #.z *                         ",
"                                = 1 %.w @ Z J #.2 o 2 k < K M * : o R k - -                         ",
"                                  < x * = J l J > * ; 0 Z v h * > : ; o *                           ",
"                                  : * s > h $.h > * > 0 L k = < : : < ;                             ",
"                                    * > * * l.v > * < O U A O > < :                                 ",
"                                    $ = c `.S.+.x h > q V.3.q 2 : * ;                               ",
"                                  J.e.x.1X+X0.:.Q k = D.qX(.L 0 K j 3 i                             ",
"                                  Q.=XXXA.H e 9 N o N.#X+X.X! O 1 S {                               ",
"                                      t.X 8 9 4 ; `.].^.U.U.F # % p                                 ",
"                                  Q.E.Y.U.G.S.~ L U c I I D { | s.                                  ",
"                                    K.P.D.G.~.^.c.z.N.7.y.x.H.                                      ",
"                                    i t x h l l v Q #.#.&.[                                         ",
"                                          : : : : : : * o = q                                       ",
"                                                                                                    "
};
